<?xml version="1.0" ?><!DOCTYPE svg  PUBLIC '-//W3C//DTD SVG 1.1//EN'  'http://www.w3.org/Graphics/SVG/1.1/DTD/svg11.dtd'><svg style="enable-background:new 0 0 512 512;" version="1.1" viewBox="0 0 512 512" xml:space="preserve" xmlns="http://www.w3.org/2000/svg" xmlns:xlink="http://www.w3.org/1999/xlink"><g id="cricket"><g><g><defs><circle cx="256" cy="256" id="SVGID_1_" r="200"/></defs><use style="overflow:visible;fill:#E53935;" xlink:href="#SVGID_1_"/><clipPath id="SVGID_2_"><use style="overflow:visible;" xlink:href="#SVGID_1_"/></clipPath><g style="clip-path:url(#SVGID_2_);"><g><line style="fill:none;stroke:#FFECB3;stroke-width:5;stroke-miterlimit:10;" x1="293.5" x2="293.5" y1="64" y2="75"/><line style="fill:none;stroke:#FFECB3;stroke-width:5;stroke-miterlimit:10;stroke-dasharray:23,12;" x1="293.5" x2="293.5" y1="87" y2="431"/><line style="fill:none;stroke:#FFECB3;stroke-width:5;stroke-miterlimit:10;" x1="293.5" x2="293.5" y1="437" y2="448"/></g></g><g style="clip-path:url(#SVGID_2_);"><g><line style="fill:none;stroke:#FFECB3;stroke-width:5;stroke-miterlimit:10;" x1="307.5" x2="307.5" y1="64" y2="75"/><line style="fill:none;stroke:#FFECB3;stroke-width:5;stroke-miterlimit:10;stroke-dasharray:23,12;" x1="307.5" x2="307.5" y1="87" y2="431"/><line style="fill:none;stroke:#FFECB3;stroke-width:5;stroke-miterlimit:10;" x1="307.5" x2="307.5" y1="437" y2="448"/></g></g><g style="clip-path:url(#SVGID_2_);"><g><line style="fill:none;stroke:#FFECB3;stroke-width:5;stroke-miterlimit:10;" x1="204.5" x2="204.5" y1="64" y2="75"/><line style="fill:none;stroke:#FFECB3;stroke-width:5;stroke-miterlimit:10;stroke-dasharray:23,12;" x1="204.5" x2="204.5" y1="87" y2="431"/><line style="fill:none;stroke:#FFECB3;stroke-width:5;stroke-miterlimit:10;" x1="204.5" x2="204.5" y1="437" y2="448"/></g></g><g style="clip-path:url(#SVGID_2_);"><g><line style="fill:none;stroke:#FFECB3;stroke-width:5;stroke-miterlimit:10;" x1="218.5" x2="218.5" y1="64" y2="75"/><line style="fill:none;stroke:#FFECB3;stroke-width:5;stroke-miterlimit:10;stroke-dasharray:23,12;" x1="218.5" x2="218.5" y1="87" y2="431"/><line style="fill:none;stroke:#FFECB3;stroke-width:5;stroke-miterlimit:10;" x1="218.5" x2="218.5" y1="437" y2="448"/></g></g><g style="clip-path:url(#SVGID_2_);"><rect height="413.494" style="fill:#C62828;" width="29.49" x="241.255" y="49.366"/><g><polyline points="270.745,451.445 270.745,462.86        259.33,462.86      " style="fill:none;stroke:#FFECB3;stroke-width:5;stroke-miterlimit:10;"/><polyline points="252.67,462.86 241.255,462.86        241.255,451.445      " style="fill:none;stroke:#FFECB3;stroke-width:5;stroke-miterlimit:10;"/><line style="fill:none;stroke:#FFECB3;stroke-width:5;stroke-miterlimit:10;stroke-dasharray:22.2659,12.145;" x1="241.255" x2="241.255" y1="439.3" y2="66.853"/><polyline points="241.255,60.78 241.255,49.366        252.67,49.366      " style="fill:none;stroke:#FFECB3;stroke-width:5;stroke-miterlimit:10;"/><polyline points="259.33,49.366 270.745,49.366        270.745,60.78      " style="fill:none;stroke:#FFECB3;stroke-width:5;stroke-miterlimit:10;"/><line style="fill:none;stroke:#FFECB3;stroke-width:5;stroke-miterlimit:10;stroke-dasharray:22.2659,12.145;" x1="270.745" x2="270.745" y1="72.925" y2="445.373"/></g></g></g><g id="XMLID_28_"><path d="M256,70c49.683,0,96.391,19.347,131.522,54.478S442,206.317,442,256     s-19.347,96.391-54.478,131.522S305.683,442,256,442s-96.391-19.347-131.522-54.478S70,305.683,70,256     s19.347-96.391,54.478-131.522S206.317,70,256,70 M256,56C145.543,56,56,145.543,56,256s89.543,200,200,200s200-89.543,200-200     S366.457,56,256,56L256,56z" style="fill:#424242;"/></g></g></g><g id="Layer_1"/></svg>